# xmcd
#
# Track frame offsets: 
#        150
#        10407
#        21722
#        33242
#        46730
#        58137
#        69090
#        79340
#        89920
#        100815
#        109977
#        121000
#        129732
#        139722
#        151425
#        161175
#        171912
#        188837
#        198725
#        210867
#        225662
#        239682
#        254677
#        268677
#        279212
#        293245
#        304970
#
# Disc length: 4205 seconds
#
# Revision: 5
# Processed by: cddbd v1.5.2PL0 Copyright (c) Steve Scherf et al.
# Submitted via: ExactAudioCopy v0.95b3
#
DISCID=94106b1b
DTITLE=Bill Monroe - The Music of Bill Monroe [disc 3: 1958-1969]
DYEAR=1994
DGENRE=Bluegrass
TTITLE0=Big Moh [1958]
TTITLE1=Dark as the Night, Blue as the Day [1959]
TTITLE2=Sold Down the River [1960]
TTITLE3=Little Joe [1960]
TTITLE4=Lonesome Road Blues [1960]
TTITLE5=I'm Going Back to Old Kentucky [1961]
TTITLE6=Toy Heart [1961]
TTITLE7=Nine Pound Hammer [1961]
TTITLE8=Big Sandy River [1962]
TTITLE9=Darling Corey [1962]
TTITLE10=Salt Creek [1963]
TTITLE11=Sailor's Hornpipe [1963]
TTITLE12=Roll On Buddy, Roll On [1964]
TTITLE13=Bill's Dream [1964]
TTITLE14=Never Again [1964]
TTITLE15=Dusty Miller [1966]
TTITLE16=Midnight on the Stormy Deep [1966]
TTITLE17=Soldier's Joy [1966]
TTITLE18=Blue Night [1967]
TTITLE19=Sally Goodin [1967]
TTITLE20=Kentucky Mandolin [1967]
TTITLE21=Walls of Time [1967]
TTITLE22=I Haven't Seen Mary in Years [1969]
TTITLE23=The Dead March [1969]
TTITLE24=With Body and Soul [1969]
TTITLE25=Walk Softly on My Heart [1969]
TTITLE26=Goin' Up Caney [1969]
EXTD=4CD box set subtitle: From 1936 to 1994\nWilliam Smith "Bill" Mon
EXTD=roe (1911-09-13/1996-09-09): mandolin, vocals\n4CD: MCA MCAC/D4-1
EXTD=1048 (1994-07-19), UPC 008811104825.\ninfo: <http://www.ibiblio.o
EXTD=rg/hillwilliam/BGdiscography/search/viewrelease.php?rid=8100>
EXTT0=
EXTT1=
EXTT2=
EXTT3=
EXTT4=
EXTT5=
EXTT6=
EXTT7=
EXTT8=
EXTT9=
EXTT10=
EXTT11=
EXTT12=
EXTT13=
EXTT14=
EXTT15=
EXTT16=
EXTT17=
EXTT18=
EXTT19=
EXTT20=
EXTT21=
EXTT22=
EXTT23=
EXTT24=
EXTT25=
EXTT26=
PLAYORDER=
